HIERARCHY
ROOT hip
{
  OFFSET 0.00112043 5.09927 -9.65472
  CHANNELS 6 Xposition Yposition Zposition Zrotation Xrotation Yrotation
  JOINT abdomen
  {
    OFFSET 0 -1.186 -1.5018
    CHANNELS 3 Zrotation Xrotation Yrotation
    JOINT abdomen2
    {
      OFFSET 0 9.964 0.2134
      CHANNELS 3 Zrotation Xrotation Yrotation
      JOINT chest
      {
        OFFSET 0 13.134 -3.2573
        CHANNELS 3 Zrotation Xrotation Yrotation
        JOINT neck
        {
          OFFSET 0 20.686 -1.6905
          CHANNELS 3 Zrotation Xrotation Yrotation
          JOINT head
          {
            OFFSET 0 7.238 -0.1237
            CHANNELS 3 Zrotation Xrotation Yrotation
            End Site
            {
              OFFSET 0 0 0
            }
          }
        }
        JOINT lCollar
        {
          OFFSET 1.7069 20.075 5.0056
          CHANNELS 3 Zrotation Xrotation Yrotation
          JOINT lShldr
          {
            OFFSET 13.6458 -0.047 -4.849
            CHANNELS 3 Zrotation Xrotation Yrotation
            JOINT lForeArm
            {
              OFFSET 28.3255 -0.9759 2.2888
              CHANNELS 3 Zrotation Xrotation Yrotation
              JOINT lHand
              {
                OFFSET 22.1583 -0.53 10.8316
                CHANNELS 3 Zrotation Xrotation Yrotation
                JOINT lThumb1
                {
                  OFFSET 0.786 0.112 2.5817
                  CHANNELS 3 Zrotation Xrotation Yrotation
                  JOINT lThumb2
                  {
                    OFFSET 0.3601 -0.878 4.2331
                    CHANNELS 3 Zrotation Xrotation Yrotation
                    JOINT lThumb2_End
                    {
                      OFFSET 1.8127 -1.216 2.2227
                      CHANNELS 3 Zrotation Xrotation Yrotation
                      End Site
                      {
                        OFFSET 0.0181 -0.0122 0.0222
                      }
                    }
                  }
                }
                JOINT lCarpal1
                {
                  OFFSET 0.9571 1.114 1.7695
                  CHANNELS 3 Zrotation Xrotation Yrotation
                  JOINT lIndex1
                  {
                    OFFSET 4.1246 0.487 4.1451
                    CHANNELS 3 Zrotation Xrotation Yrotation
                    JOINT lIndex2
                    {
                      OFFSET 3.4052 -1.454 2.7682
                      CHANNELS 3 Zrotation Xrotation Yrotation
                      JOINT lIndex2_End
                      {
                        OFFSET 1.4531 -1.795 1.2713
                        CHANNELS 3 Zrotation Xrotation Yrotation
                        End Site
                        {
                          OFFSET 0.0145 -0.0179 0.0127
                        }
                      }
                    }
                  }
                  JOINT lMid1
                  {
                    OFFSET 5.6954 0.21 2.1184
                    CHANNELS 3 Zrotation Xrotation Yrotation
                    JOINT lMid2
                    {
                      OFFSET 3.9766 -1.54 2.3863
                      CHANNELS 3 Zrotation Xrotation Yrotation
                      JOINT lMid2_End
                      {
                        OFFSET 1.4042 -1.926 1.125
                        CHANNELS 3 Zrotation Xrotation Yrotation
                        End Site
                        {
                          OFFSET 0.014 -0.0193 0.0113
                        }
                      }
                    }
                  }
                }
                JOINT lCarpal2
                {
                  OFFSET 2.0956 0.66 -0.3894
                  CHANNELS 3 Zrotation Xrotation Yrotation
                  JOINT lRing1
                  {
                    OFFSET 5.0395 -0.09 2.4971
                    CHANNELS 3 Zrotation Xrotation Yrotation
                    JOINT lRing2
                    {
                      OFFSET 3.7921 -1.552 1.4806
                      CHANNELS 3 Zrotation Xrotation Yrotation
                      JOINT lRing2_End
                      {
                        OFFSET 1.4655 -1.808 0.9609
                        CHANNELS 3 Zrotation Xrotation Yrotation
                        End Site
                        {
                          OFFSET 0.0147 -0.0181 0.0096
                        }
                      }
                    }
                  }
                  JOINT lPinky1
                  {
                    OFFSET 4.9141 -1.269 0.3591
                    CHANNELS 3 Zrotation Xrotation Yrotation
                    JOINT lPinky2
                    {
                      OFFSET 3.1477 -1.685 0.8462
                      CHANNELS 3 Zrotation Xrotation Yrotation
                      JOINT lPinky2_End
                      {
                        OFFSET 0.8055 -1.585 0.7955
                        CHANNELS 3 Zrotation Xrotation Yrotation
                        End Site
                        {
                          OFFSET 0.0081 -0.0158 0.008
                        }
                      }
                    }
                  }
                }
              }
            }
          }
        }
        JOINT rCollar
        {
          OFFSET -1.7069 20.075 5.0056
          CHANNELS 3 Zrotation Xrotation Yrotation
          JOINT rShldr
          {
            OFFSET -13.6458 -0.047 -4.849
            CHANNELS 3 Zrotation Xrotation Yrotation
            JOINT rForeArm
            {
              OFFSET -28.3255 -0.9759 2.2888
              CHANNELS 3 Zrotation Xrotation Yrotation
              JOINT rHand
              {
                OFFSET -22.1583 -0.53 10.8316
                CHANNELS 3 Zrotation Xrotation Yrotation
                JOINT rThumb1
                {
                  OFFSET -0.786 0.112 2.5817
                  CHANNELS 3 Zrotation Xrotation Yrotation
                  JOINT rThumb2
                  {
                    OFFSET -0.3601 -0.878 4.2331
                    CHANNELS 3 Zrotation Xrotation Yrotation
                    JOINT rThumb2_End
                    {
                      OFFSET -1.8127 -1.216 2.2227
                      CHANNELS 3 Zrotation Xrotation Yrotation
                      End Site
                      {
                        OFFSET -0.0181 -0.0122 0.0222
                      }
                    }
                  }
                }
                JOINT rCarpal1
                {
                  OFFSET -0.9571 1.114 1.7695
                  CHANNELS 3 Zrotation Xrotation Yrotation
                  JOINT rIndex1
                  {
                    OFFSET -4.1246 0.487 4.1451
                    CHANNELS 3 Zrotation Xrotation Yrotation
                    JOINT rIndex2
                    {
                      OFFSET -3.4052 -1.454 2.7682
                      CHANNELS 3 Zrotation Xrotation Yrotation
                      JOINT rIndex2_End
                      {
                        OFFSET -1.4531 -1.795 1.2713
                        CHANNELS 3 Zrotation Xrotation Yrotation
                        End Site
                        {
                          OFFSET -0.0145 -0.018 0.0127
                        }
                      }
                    }
                  }
                  JOINT rMid1
                  {
                    OFFSET -5.6954 0.21 2.1184
                    CHANNELS 3 Zrotation Xrotation Yrotation
                    JOINT rMid2
                    {
                      OFFSET -3.9766 -1.54 2.3863
                      CHANNELS 3 Zrotation Xrotation Yrotation
                      JOINT rMid2_End
                      {
                        OFFSET -1.4042 -1.926 1.125
                        CHANNELS 3 Zrotation Xrotation Yrotation
                        End Site
                        {
                          OFFSET -0.014 -0.0193 0.0113
                        }
                      }
                    }
                  }
                }
                JOINT rCarpal2
                {
                  OFFSET -2.0956 0.66 -0.3894
                  CHANNELS 3 Zrotation Xrotation Yrotation
                  JOINT rRing1
                  {
                    OFFSET -5.0395 -0.09 2.4971
                    CHANNELS 3 Zrotation Xrotation Yrotation
                    JOINT rRing2
                    {
                      OFFSET -3.7921 -1.552 1.4806
                      CHANNELS 3 Zrotation Xrotation Yrotation
                      JOINT rRing2_End
                      {
                        OFFSET -1.4655 -1.808 0.9609
                        CHANNELS 3 Zrotation Xrotation Yrotation
                        End Site
                        {
                          OFFSET -0.0147 -0.0181 0.0096
                        }
                      }
                    }
                  }
                  JOINT rPinky1
                  {
                    OFFSET -4.9141 -1.269 0.3592
                    CHANNELS 3 Zrotation Xrotation Yrotation
                    JOINT rPinky2
                    {
                      OFFSET -3.1477 -1.685 0.8462
                      CHANNELS 3 Zrotation Xrotation Yrotation
                      JOINT rPinky2_End
                      {
                        OFFSET -0.8055 -1.585 0.7955
                        CHANNELS 3 Zrotation Xrotation Yrotation
                        End Site
                        {
                          OFFSET -0.0081 -0.0158 0.008
                        }
                      }
                    }
                  }
                }
              }
            }
          }
        }
      }
    }
  }
  JOINT lThigh
  {
    OFFSET 8.367 -8.2066 0.5982
    CHANNELS 3 Zrotation Xrotation Yrotation
    JOINT lShin
    {
      OFFSET 2.1923 -43.463 -0.4932
      CHANNELS 3 Zrotation Xrotation Yrotation
      JOINT lFoot
      {
        OFFSET 0.7333 -45.8593 -2.6451
        CHANNELS 3 Zrotation Xrotation Yrotation
        End Site
        {
          OFFSET 2.6618 -4.2699 12.3931
        }
      }
    }
  }
  JOINT rThigh
  {
    OFFSET -8.367 -8.2066 0.5982
    CHANNELS 3 Zrotation Xrotation Yrotation
    JOINT rShin
    {
      OFFSET -2.1923 -43.463 -0.4931
      CHANNELS 3 Zrotation Xrotation Yrotation
      JOINT rFoot
      {
        OFFSET -0.7333 -45.8593 -2.6451
        CHANNELS 3 Zrotation Xrotation Yrotation
        End Site
        {
          OFFSET -2.6618 -4.2699 12.3931
        }
      }
    }
  }
}
MOTION
Frames:	4
Frame Time:	0.0333333
0 91.7903 2.51682 0 0 -0 0 0 -0 0 0 -0 0 0 -0 0 0 -0 0 0 -0 0 0 -0 1.66051 0.0835086 5.75766 -0.0175111 0.895433 15.7816 7.95139e-016 -1.98785e-016 -0 5.46658e-016 -3.97569e-016 -0 5.96354e-016 0 -0 3.97569e-016 1.98785e-016 9.54166e-015 1.49089e-016 -3.97569e-016 -0 6.4605e-016 0 3.18055e-015 5.96354e-016 0 3.18055e-015 8.94531e-016 -1.98785e-016 6.36111e-015 6.4605e-016 0 3.18055e-015 5.96354e-016 0 3.18055e-015 8.94531e-016 -1.98785e-016 6.36111e-015 1.49089e-016 -3.97569e-016 -0 6.4605e-016 0 3.18055e-015 5.96354e-016 0 3.18055e-015 8.94531e-016 -1.98785e-016 6.36111e-015 6.4605e-016 0 3.18055e-015 5.96354e-016 0 3.18055e-015 8.94531e-016 -1.98785e-016 6.36111e-015 0 0 -0 -1.4496 0.0636048 -5.0245 -1.74811 1.20616 -16.8394 -1.19271e-015 1.98785e-016 -3.18055e-015 -3.97569e-016 1.98785e-016 -3.18055e-015 -2.98177e-016 1.98785e-016 -3.18055e-015 -2.98177e-016 3.97569e-016 -0 4.96962e-016 0 -6.36111e-015 -9.93923e-017 3.97569e-016 -0 -8.94531e-016 5.96354e-016 -0 -3.97569e-016 3.97569e-016 -0 -9.93923e-017 3.97569e-016 -0 -8.94531e-016 5.96354e-016 -0 -3.97569e-016 3.97569e-016 -0 4.96962e-016 0 -6.36111e-015 -9.93923e-017 3.97569e-016 -0 -8.94531e-016 5.96354e-016 -0 -3.97569e-016 3.97569e-016 -0 -9.93923e-017 3.97569e-016 -0 -8.94531e-016 5.96354e-016 -0 -3.97569e-016 3.97569e-016 -0 -4.66111 -0.998717 0.12318 0.00986924 1.54847 0.176523 4.65186 -0.572283 -0.254274 4.66111 -0.998765 -0.123176 -0.00986867 1.54869 -0.176537 -4.65186 -0.572453 0.25427 
0.0404973 87.3218 3.97497 0 0.0656662 -0 -0.387192 -1.49416 2.40323 -0.711712 -3.00321 4.79879 -0.711711 -3.00321 4.79879 10.3682 0.0330201 -0.00817199 1.71907e-006 -0.249097 1.581e-006 33.7641 -4.0089 -16.8678 -47.4 1.75192 -6.0124 -24.9148 1.00582 -81.5473 -20.7962 8.08005 1.13397 -6.20072e-007 5.11787e-007 2.863e-007 -6.20072e-007 5.11787e-007 2.863e-007 -6.20072e-007 5.11787e-007 2.863e-007 -2.75869e-033 1.98785e-016 7.95139e-016 -6.20072e-007 5.11787e-007 2.863e-007 -6.20072e-007 5.11787e-007 2.863e-007 -6.20072e-007 5.11787e-007 2.863e-007 -6.20072e-007 5.11787e-007 2.863e-007 -6.20072e-007 5.11787e-007 2.863e-007 -6.20072e-007 5.11787e-007 2.863e-007 -2.75869e-033 1.98785e-016 7.95139e-016 -6.20072e-007 5.11787e-007 2.863e-007 -6.20072e-007 5.11787e-007 2.863e-007 -6.20072e-007 5.11787e-007 2.863e-007 -6.20072e-007 5.11787e-007 2.863e-007 -6.20072e-007 5.11787e-007 2.863e-007 -6.20072e-007 5.11787e-007 2.863e-007 11.747 0.317649 11.1342 42.7706 -0.689897 7.12201 -6.44323 -3.78628 27.0931 41.6275 8.18776 -9.77309 -3.94872e-007 -5.61729e-007 4.97009e-007 -7.89745e-007 -1.12346e-006 9.94018e-007 -3.94872e-007 -5.61729e-007 4.97009e-007 -6.36111e-015 -6.36111e-015 -0 -3.94872e-007 -5.61729e-007 4.97009e-007 -7.89745e-007 -1.12346e-006 9.94018e-007 -3.94872e-007 -5.61729e-007 4.97009e-007 -3.94872e-007 -5.61729e-007 4.97009e-007 -7.89745e-007 -1.12346e-006 9.94018e-007 -3.94872e-007 -5.61729e-007 4.97009e-007 -6.36111e-015 -6.36111e-015 -0 -3.94872e-007 -5.61729e-007 4.97009e-007 -7.89745e-007 -1.12346e-006 9.94018e-007 -3.94872e-007 -5.61729e-007 4.97009e-007 -3.94872e-007 -5.61729e-007 4.97009e-007 -7.89745e-007 -1.12346e-006 9.94018e-007 -3.94872e-007 -5.61729e-007 4.97009e-007 2.59504 -19.2659 10.4247 1.99219 34.1872 -0.642501 -7.34499 -14.2299 1.01223 -10.7805 -15.4723 -10.2707 -0.370388 23.7949 -0.439814 14.1524 -5.32637 -1.16171 
0.0914169 85.1758 4.64497 -0 -0.2298 -0 -0.562182 -2.00453 3.4857 -1.00222 -4.03944 6.95804 -1.00222 -4.03944 6.95803 15.0339 -0.115065 0.0286813 2.12846e-007 -0.327095 2.52714e-006 48.3037 -5.74667 -24.2856 -69.1042 2.37275 -11.3256 -35.6473 4.20574 -124.971 -30.2736 11.3238 2.4098 -7.87234e-007 3.52699e-006 5.88815e-008 7.87234e-007 -3.52699e-006 -5.88815e-008 -7.87234e-007 3.52699e-006 5.88815e-008 0 3.18055e-015 -0 -7.87234e-007 3.52699e-006 5.88815e-008 7.87234e-007 -3.52699e-006 -5.88815e-008 -7.87234e-007 3.52699e-006 5.88815e-008 -7.87234e-007 3.52699e-006 5.88815e-008 7.87234e-007 -3.52699e-006 -5.88815e-008 -7.87234e-007 3.52699e-006 5.88815e-008 0 3.18055e-015 -0 -7.87234e-007 3.52699e-006 5.88815e-008 7.87234e-007 -3.52699e-006 -5.88815e-008 -7.87234e-007 3.52699e-006 5.88815e-008 -7.87234e-007 3.52699e-006 5.88815e-008 7.87234e-007 -3.52699e-006 -5.88815e-008 -7.87234e-007 3.52699e-006 5.88815e-008 16.7759 -0.0445879 16.1458 62.8725 -0.960259 12.6201 -7.19256 -4.60575 47.0551 60.3593 9.73961 -17.4234 3.18055e-015 0 7.70291e-016 1.16725e-006 5.49255e-007 -1.06318e-006 4.77083e-015 -4.17448e-015 2.95692e-015 1.59028e-015 7.95139e-016 7.45443e-016 1.59028e-015 -7.95139e-016 6.21202e-016 1.16725e-006 5.49255e-007 -1.06318e-006 4.77083e-015 -4.17448e-015 2.95692e-015 1.59028e-015 -7.95139e-016 6.21202e-016 1.16725e-006 5.49255e-007 -1.06318e-006 4.77083e-015 -4.17448e-015 2.95692e-015 1.59028e-015 7.95139e-016 7.45443e-016 1.59028e-015 -7.95139e-016 6.21202e-016 1.16725e-006 5.49255e-007 -1.06318e-006 4.77083e-015 -4.17448e-015 2.95692e-015 1.59028e-015 -7.95139e-016 6.21202e-016 1.16725e-006 5.49255e-007 -1.06318e-006 4.77083e-015 -4.17448e-015 2.95692e-015 7.99246 -27.0882 15.986 3.99037 49.2667 -1.50168 -12.3998 -20.6929 1.80557 -19.3968 -21.5643 -15.3446 -0.815808 34.2393 -0.64 22.5192 -7.77922 -1.88917 
0.0787597 85.539 4.52577 -0 -0.886494 -0 -0.484506 -1.59849 3.24932 -0.878072 -3.22182 6.48884 -0.878073 -3.22182 6.48884 13.9976 -0.443668 0.110582 2.04758e-006 -0.233987 2.31722e-006 45.3548 -5.87198 -22.1127 -64.0009 2.09565 -10.1644 -33.6342 3.24466 -115.268 -27.9779 10.2864 1.65205 -1.52127e-006 5.27313e-007 5.42857e-007 -6.36111e-015 3.18055e-015 -3.18055e-015 -1.52127e-006 5.27313e-007 5.42857e-007 -3.18055e-015 0 -0 -1.52127e-006 5.27313e-007 5.42857e-007 -3.53113e-031 -3.18055e-015 -6.36111e-015 -1.52127e-006 5.27313e-007 5.42857e-007 -1.52127e-006 5.27313e-007 5.42857e-007 -3.53113e-031 -3.18055e-015 -6.36111e-015 -1.52127e-006 5.27313e-007 5.42857e-007 -3.18055e-015 0 -0 -1.52127e-006 5.27313e-007 5.42857e-007 -3.53113e-031 -3.18055e-015 -6.36111e-015 -1.52127e-006 5.27313e-007 5.42857e-007 -1.52127e-006 5.27313e-007 5.42857e-007 -3.53113e-031 -3.18055e-015 -6.36111e-015 -1.52127e-006 5.27313e-007 5.42857e-007 15.1485 -1.07287 15.0352 58.6721 -0.790306 11.4664 -6.99457 -4.41559 42.7984 56.357 9.19043 -15.8045 3.18055e-015 7.95139e-016 -5.96354e-016 1.98626e-031 -2.38542e-015 4.77083e-015 3.18055e-015 -3.18055e-015 4.77083e-015 3.18055e-015 7.95139e-016 -5.96354e-016 1.98626e-031 -2.38542e-015 4.77083e-015 3.18055e-015 -3.18055e-015 4.77083e-015 3.18055e-015 -1.59028e-015 6.95746e-015 1.98626e-031 -2.38542e-015 4.77083e-015 3.18055e-015 -3.18055e-015 4.77083e-015 3.18055e-015 -1.59028e-015 6.95746e-015 3.18055e-015 7.95139e-016 -5.96354e-016 1.98626e-031 -2.38542e-015 4.77083e-015 3.18055e-015 -3.18055e-015 4.77083e-015 3.18055e-015 -1.59028e-015 6.95746e-015 1.98626e-031 -2.38542e-015 4.77083e-015 3.18055e-015 -3.18055e-015 4.77083e-015 3.18055e-015 -1.59028e-015 6.95746e-015 6.67087 -24.7179 14.6523 3.54095 46.2179 -1.3051 -11.3681 -19.4694 1.49414 -17.3958 -19.6689 -14.0813 -0.788813 32.3256 -0.552928 20.7364 -7.43981 -1.49991 
